<svg width="72" height="71" viewBox="0 0 72 71" fill="none" xmlns="http://www.w3.org/2000/svg">
<circle cx="36.0781" cy="35.7993" r="35.2007" fill="#372693"/>
<path fill-rule="evenodd" clip-rule="evenodd" d="M37.4717 50.7114C40.9513 50.2156 44.7373 49.197 48.8131 47.5882C73.2529 37.9409 56.6596 29.0654 51.5144 27.3932C51.3938 27.354 51.2562 27.309 51.1026 27.2589C44.7007 25.1684 10.3525 13.9522 10.3525 27.3932C10.3525 34.3555 12.3897 40.346 16.2644 44.5597C16.6158 44.1287 17.0405 43.7845 17.5385 43.5273C18.9689 42.8121 20.4223 42.2754 21.8989 41.9174C23.3754 41.5593 24.875 41.3807 26.3977 41.3817C27.9204 41.3817 29.42 41.5607 30.8965 41.9188C32.373 42.2768 33.8265 42.813 35.2569 43.5273C35.926 43.8733 36.4626 44.3753 36.8668 45.0333C37.271 45.6913 37.4726 46.412 37.4717 47.1955V50.7114ZM38.8559 38.6132V42.7659H41.6245V38.6132H45.7772V35.8447H41.6245V31.6919H38.8559V35.8447H34.7032V38.6132H38.8559ZM22.4872 38.3709C23.5715 39.4553 24.875 39.9974 26.3977 39.9974C27.9204 39.9974 29.2239 39.4553 30.3082 38.3709C31.3925 37.2866 31.9347 35.9831 31.9347 34.4604C31.9347 32.9377 31.3925 31.6342 30.3082 30.5499C29.2239 29.4656 27.9204 28.9234 26.3977 28.9234C24.875 28.9234 23.5715 29.4656 22.4872 30.5499C21.4029 31.6342 20.8607 32.9377 20.8607 34.4604C20.8607 35.9831 21.4029 37.2866 22.4872 38.3709Z" fill="white"/>
</svg>
