<svg width="127" height="32" viewBox="0 0 127 32" fill="none" xmlns="http://www.w3.org/2000/svg">
<path d="M65.8219 1.63948C67.8676 1.63948 69.4382 2.00242 70.5336 2.72831C71.629 3.44101 72.1768 4.61563 72.1768 6.25219C72.1768 7.90194 71.6225 9.09637 70.5138 9.83546C69.4052 10.5613 67.8214 10.9243 65.7625 10.9243H64.7925V15.5172H61.7041V1.99582C62.3772 1.86384 63.0899 1.77146 63.8422 1.71866C64.5945 1.66587 65.2544 1.63948 65.8219 1.63948ZM66.0199 4.27248C65.7955 4.27248 65.5712 4.27908 65.3468 4.29228C65.1356 4.30548 64.9508 4.31868 64.7925 4.33188V8.29129H65.7625C66.8316 8.29129 67.6366 8.14611 68.1778 7.85575C68.7189 7.56539 68.9894 7.02428 68.9894 6.23239C68.9894 5.84965 68.9169 5.5329 68.7717 5.28213C68.6397 5.03137 68.4417 4.8334 68.1778 4.68822C67.927 4.52985 67.6168 4.42426 67.2473 4.37147C66.8778 4.30548 66.4686 4.27248 66.0199 4.27248ZM73.4617 10.3898C73.4617 9.46591 73.6003 8.66083 73.8775 7.97453C74.1678 7.27504 74.544 6.69432 75.0059 6.23239C75.4678 5.77046 75.9957 5.42071 76.5897 5.18315C77.1968 4.94558 77.8171 4.8268 78.4506 4.8268C79.9288 4.8268 81.0968 5.28213 81.9547 6.1928C82.8125 7.09027 83.2415 8.41667 83.2415 10.172C83.2415 10.3436 83.2349 10.535 83.2217 10.7461C83.2085 10.9441 83.1953 11.1223 83.1821 11.2806H76.4907C76.5567 11.8878 76.8404 12.3695 77.3419 12.7258C77.8435 13.0822 78.5166 13.2603 79.3612 13.2603C79.9024 13.2603 80.4303 13.2142 80.945 13.1218C81.4729 13.0162 81.9019 12.8908 82.2318 12.7456L82.6278 15.1411C82.4694 15.2203 82.2582 15.2994 81.9943 15.3786C81.7303 15.4578 81.4333 15.5238 81.1034 15.5766C80.7866 15.6426 80.4435 15.6954 80.0739 15.735C79.7044 15.7746 79.3348 15.7944 78.9653 15.7944C78.0282 15.7944 77.21 15.6558 76.5105 15.3786C75.8242 15.1015 75.2501 14.7253 74.7881 14.2502C74.3394 13.7619 74.0028 13.1878 73.7785 12.5279C73.5673 11.868 73.4617 11.1553 73.4617 10.3898ZM80.3907 9.26134C80.3775 9.01058 80.3313 8.76642 80.2521 8.52885C80.1861 8.29129 80.0739 8.08012 79.9156 7.89535C79.7704 7.71057 79.579 7.5588 79.3414 7.44001C79.1171 7.32123 78.8333 7.26184 78.4902 7.26184C78.1602 7.26184 77.8765 7.32123 77.6389 7.44001C77.4013 7.5456 77.2034 7.69078 77.045 7.87555C76.8866 8.06032 76.7612 8.27809 76.6688 8.52885C76.5897 8.76642 76.5303 9.01058 76.4907 9.26134H80.3907ZM95.258 10.2908C95.258 11.1091 95.1392 11.8614 94.9016 12.5477C94.6641 13.2208 94.3209 13.8015 93.8722 14.2898C93.4234 14.7649 92.8823 15.1345 92.2488 15.3984C91.6285 15.6624 90.929 15.7944 90.1503 15.7944C89.3848 15.7944 88.6853 15.6624 88.0518 15.3984C87.4315 15.1345 86.897 14.7649 86.4483 14.2898C85.9995 13.8015 85.6498 13.2208 85.399 12.5477C85.1483 11.8614 85.0229 11.1091 85.0229 10.2908C85.0229 9.47251 85.1483 8.72682 85.399 8.05372C85.663 7.38062 86.0193 6.80651 86.4681 6.33138C86.93 5.85625 87.4711 5.4867 88.0914 5.22274C88.7249 4.95878 89.4112 4.8268 90.1503 4.8268C90.9026 4.8268 91.5889 4.95878 92.2092 5.22274C92.8427 5.4867 93.3838 5.85625 93.8326 6.33138C94.2813 6.80651 94.6311 7.38062 94.8818 8.05372C95.1326 8.72682 95.258 9.47251 95.258 10.2908ZM92.2488 10.2908C92.2488 9.38013 92.064 8.66743 91.6945 8.15271C91.3382 7.62479 90.8234 7.36082 90.1503 7.36082C89.4772 7.36082 88.9559 7.62479 88.5864 8.15271C88.2168 8.66743 88.032 9.38013 88.032 10.2908C88.032 11.2015 88.2168 11.9273 88.5864 12.4685C88.9559 12.9964 89.4772 13.2603 90.1503 13.2603C90.8234 13.2603 91.3382 12.9964 91.6945 12.4685C92.064 11.9273 92.2488 11.2015 92.2488 10.2908ZM104.215 10.3898C104.215 9.47911 104.01 8.75322 103.601 8.2121C103.192 7.65778 102.585 7.38062 101.78 7.38062C101.516 7.38062 101.271 7.39382 101.047 7.42022C100.823 7.43341 100.638 7.45321 100.493 7.47961V12.805C100.678 12.9238 100.915 13.0228 101.205 13.102C101.509 13.1812 101.813 13.2208 102.116 13.2208C103.515 13.2208 104.215 12.2771 104.215 10.3898ZM107.224 10.3106C107.224 11.1157 107.125 11.8482 106.927 12.5081C106.729 13.168 106.438 13.7355 106.056 14.2106C105.673 14.6857 105.198 15.0553 104.63 15.3192C104.063 15.5832 103.41 15.7152 102.67 15.7152C102.261 15.7152 101.879 15.6756 101.522 15.5964C101.166 15.5172 100.823 15.405 100.493 15.2599V19.1797H97.543V5.46031C97.8069 5.38112 98.1105 5.30853 98.4536 5.24254C98.7968 5.16335 99.1531 5.09736 99.5227 5.04457C99.9054 4.99178 100.288 4.95218 100.671 4.92579C101.067 4.88619 101.443 4.8664 101.799 4.8664C102.657 4.8664 103.423 4.99838 104.096 5.26234C104.769 5.5131 105.336 5.87605 105.798 6.35118C106.26 6.81311 106.61 7.38062 106.848 8.05372C107.098 8.72682 107.224 9.47911 107.224 10.3106ZM113.648 15.7152C112.79 15.702 112.091 15.6096 111.55 15.438C111.022 15.2664 110.599 15.0289 110.283 14.7253C109.979 14.4086 109.768 14.0324 109.649 13.5969C109.544 13.1482 109.491 12.6466 109.491 12.0923V0.629826L112.441 0.154697V11.4984C112.441 11.7624 112.46 11.9999 112.5 12.2111C112.54 12.4223 112.612 12.6004 112.718 12.7456C112.837 12.8908 113.001 13.0096 113.213 13.102C113.424 13.1944 113.708 13.2537 114.064 13.2801L113.648 15.7152ZM115.26 10.3898C115.26 9.46591 115.398 8.66083 115.676 7.97453C115.966 7.27504 116.342 6.69432 116.804 6.23239C117.266 5.77046 117.794 5.42071 118.388 5.18315C118.995 4.94558 119.615 4.8268 120.249 4.8268C121.727 4.8268 122.895 5.28213 123.753 6.1928C124.611 7.09027 125.04 8.41667 125.04 10.172C125.04 10.3436 125.033 10.535 125.02 10.7461C125.007 10.9441 124.993 11.1223 124.98 11.2806H118.289C118.355 11.8878 118.638 12.3695 119.14 12.7258C119.642 13.0822 120.315 13.2603 121.159 13.2603C121.7 13.2603 122.228 13.2142 122.743 13.1218C123.271 13.0162 123.7 12.8908 124.03 12.7456L124.426 15.1411C124.267 15.2203 124.056 15.2994 123.792 15.3786C123.528 15.4578 123.231 15.5238 122.901 15.5766C122.585 15.6426 122.242 15.6954 121.872 15.735C121.502 15.7746 121.133 15.7944 120.763 15.7944C119.826 15.7944 119.008 15.6558 118.309 15.3786C117.622 15.1015 117.048 14.7253 116.586 14.2502C116.137 13.7619 115.801 13.1878 115.577 12.5279C115.365 11.868 115.26 11.1553 115.26 10.3898ZM122.189 9.26134C122.176 9.01058 122.129 8.76642 122.05 8.52885C121.984 8.29129 121.872 8.08012 121.714 7.89535C121.568 7.71057 121.377 7.5588 121.14 7.44001C120.915 7.32123 120.631 7.26184 120.288 7.26184C119.958 7.26184 119.675 7.32123 119.437 7.44001C119.199 7.5456 119.001 7.69078 118.843 7.87555C118.685 8.06032 118.559 8.27809 118.467 8.52885C118.388 8.76642 118.328 9.01058 118.289 9.26134H122.189ZM64.0804 28.6572C62.9537 28.6572 62.0937 28.3439 61.5004 27.7172C60.9137 27.0905 60.6204 26.2005 60.6204 25.0472C60.6204 24.4739 60.7104 23.9639 60.8904 23.5172C61.0704 23.0639 61.317 22.6839 61.6304 22.3772C61.9437 22.0639 62.317 21.8272 62.7504 21.6672C63.1837 21.5072 63.6537 21.4272 64.1604 21.4272C64.4537 21.4272 64.7204 21.4505 64.9604 21.4972C65.2004 21.5372 65.4104 21.5872 65.5904 21.6472C65.7704 21.7005 65.9204 21.7572 66.0404 21.8172C66.1604 21.8772 66.247 21.9239 66.3004 21.9572L65.8504 23.2172C65.637 23.1039 65.387 23.0072 65.1004 22.9272C64.8204 22.8472 64.5004 22.8072 64.1404 22.8072C63.9004 22.8072 63.6637 22.8472 63.4304 22.9272C63.2037 23.0072 63.0004 23.1372 62.8204 23.3172C62.647 23.4905 62.507 23.7172 62.4004 23.9972C62.2937 24.2772 62.2404 24.6172 62.2404 25.0172C62.2404 25.3372 62.2737 25.6372 62.3404 25.9172C62.4137 26.1905 62.527 26.4272 62.6804 26.6272C62.8404 26.8272 63.047 26.9872 63.3004 27.1072C63.5537 27.2205 63.8604 27.2772 64.2204 27.2772C64.447 27.2772 64.6504 27.2639 64.8304 27.2372C65.0104 27.2105 65.1704 27.1805 65.3104 27.1472C65.4504 27.1072 65.5737 27.0639 65.6804 27.0172C65.787 26.9705 65.8837 26.9272 65.9704 26.8872L66.4004 28.1372C66.1804 28.2705 65.8704 28.3905 65.4704 28.4972C65.0704 28.6039 64.607 28.6572 64.0804 28.6572ZM72.1075 25.8772C72.1075 26.2905 72.0475 26.6705 71.9275 27.0172C71.8075 27.3572 71.6342 27.6505 71.4075 27.8972C71.1809 28.1372 70.9075 28.3239 70.5875 28.4572C70.2742 28.5905 69.9209 28.6572 69.5275 28.6572C69.1409 28.6572 68.7875 28.5905 68.4675 28.4572C68.1542 28.3239 67.8842 28.1372 67.6575 27.8972C67.4309 27.6505 67.2542 27.3572 67.1275 27.0172C67.0009 26.6705 66.9375 26.2905 66.9375 25.8772C66.9375 25.4639 67.0009 25.0872 67.1275 24.7472C67.2609 24.4072 67.4409 24.1172 67.6675 23.8772C67.9009 23.6372 68.1742 23.4505 68.4875 23.3172C68.8075 23.1839 69.1542 23.1172 69.5275 23.1172C69.9075 23.1172 70.2542 23.1839 70.5675 23.3172C70.8875 23.4505 71.1609 23.6372 71.3875 23.8772C71.6142 24.1172 71.7909 24.4072 71.9175 24.7472C72.0442 25.0872 72.1075 25.4639 72.1075 25.8772ZM70.5875 25.8772C70.5875 25.4172 70.4942 25.0572 70.3075 24.7972C70.1275 24.5305 69.8675 24.3972 69.5275 24.3972C69.1875 24.3972 68.9242 24.5305 68.7375 24.7972C68.5509 25.0572 68.4575 25.4172 68.4575 25.8772C68.4575 26.3372 68.5509 26.7039 68.7375 26.9772C68.9242 27.2439 69.1875 27.3772 69.5275 27.3772C69.8675 27.3772 70.1275 27.2439 70.3075 26.9772C70.4942 26.7039 70.5875 26.3372 70.5875 25.8772ZM77.7518 28.3372C77.4984 28.4105 77.1718 28.4772 76.7718 28.5372C76.3718 28.6039 75.9518 28.6372 75.5118 28.6372C75.0651 28.6372 74.6918 28.5772 74.3918 28.4572C74.0984 28.3372 73.8651 28.1705 73.6918 27.9572C73.5184 27.7372 73.3951 27.4772 73.3218 27.1772C73.2484 26.8772 73.2118 26.5472 73.2118 26.1872V23.2572H74.7018V26.0072C74.7018 26.4872 74.7651 26.8339 74.8918 27.0472C75.0184 27.2605 75.2551 27.3672 75.6018 27.3672C75.7084 27.3672 75.8218 27.3639 75.9418 27.3572C76.0618 27.3439 76.1684 27.3305 76.2618 27.3172V23.2572H77.7518V28.3372ZM79.1504 23.4372C79.4038 23.3639 79.7304 23.2972 80.1304 23.2372C80.5304 23.1705 80.9504 23.1372 81.3904 23.1372C81.8371 23.1372 82.2071 23.1972 82.5004 23.3172C82.8004 23.4305 83.0371 23.5939 83.2104 23.8072C83.3838 24.0205 83.5071 24.2739 83.5804 24.5672C83.6538 24.8605 83.6904 25.1872 83.6904 25.5472V28.5172H82.2004V25.7272C82.2004 25.2472 82.1371 24.9072 82.0104 24.7072C81.8838 24.5072 81.6471 24.4072 81.3004 24.4072C81.1938 24.4072 81.0804 24.4139 80.9604 24.4272C80.8404 24.4339 80.7338 24.4439 80.6404 24.4572V28.5172H79.1504V23.4372ZM84.9891 21.9472L86.4791 21.7072V23.2572H88.2691V24.4972H86.4791V26.3472C86.4791 26.6605 86.5324 26.9105 86.6391 27.0972C86.7524 27.2839 86.9758 27.3772 87.3091 27.3772C87.4691 27.3772 87.6324 27.3639 87.7991 27.3372C87.9724 27.3039 88.1291 27.2605 88.2691 27.2072L88.4791 28.3672C88.2991 28.4405 88.0991 28.5039 87.8791 28.5572C87.6591 28.6105 87.3891 28.6372 87.0691 28.6372C86.6624 28.6372 86.3258 28.5839 86.0591 28.4772C85.7924 28.3639 85.5791 28.2105 85.4191 28.0172C85.2591 27.8172 85.1458 27.5772 85.0791 27.2972C85.0191 27.0172 84.9891 26.7072 84.9891 26.3672V21.9472ZM89.0372 25.9272C89.0372 25.4605 89.1072 25.0539 89.2472 24.7072C89.3938 24.3539 89.5838 24.0605 89.8172 23.8272C90.0505 23.5939 90.3172 23.4172 90.6172 23.2972C90.9238 23.1772 91.2372 23.1172 91.5572 23.1172C92.3038 23.1172 92.8938 23.3472 93.3272 23.8072C93.7605 24.2605 93.9772 24.9305 93.9772 25.8172C93.9772 25.9039 93.9738 26.0005 93.9672 26.1072C93.9605 26.2072 93.9538 26.2972 93.9472 26.3772H90.5672C90.6005 26.6839 90.7438 26.9272 90.9972 27.1072C91.2505 27.2872 91.5905 27.3772 92.0172 27.3772C92.2905 27.3772 92.5572 27.3539 92.8172 27.3072C93.0838 27.2539 93.3005 27.1905 93.4672 27.1172L93.6672 28.3272C93.5872 28.3672 93.4805 28.4072 93.3472 28.4472C93.2138 28.4872 93.0638 28.5205 92.8972 28.5472C92.7372 28.5805 92.5638 28.6072 92.3772 28.6272C92.1905 28.6472 92.0038 28.6572 91.8172 28.6572C91.3438 28.6572 90.9305 28.5872 90.5772 28.4472C90.2305 28.3072 89.9405 28.1172 89.7072 27.8772C89.4805 27.6305 89.3105 27.3405 89.1972 27.0072C89.0905 26.6739 89.0372 26.3139 89.0372 25.9272ZM92.5372 25.3572C92.5305 25.2305 92.5072 25.1072 92.4672 24.9872C92.4338 24.8672 92.3772 24.7605 92.2972 24.6672C92.2238 24.5739 92.1272 24.4972 92.0072 24.4372C91.8938 24.3772 91.7505 24.3472 91.5772 24.3472C91.4105 24.3472 91.2672 24.3772 91.1472 24.4372C91.0272 24.4905 90.9272 24.5639 90.8472 24.6572C90.7672 24.7505 90.7038 24.8605 90.6572 24.9872C90.6172 25.1072 90.5872 25.2305 90.5672 25.3572H92.5372ZM98.297 24.5772C98.1637 24.5439 98.007 24.5105 97.827 24.4772C97.647 24.4372 97.4537 24.4172 97.247 24.4172C97.1537 24.4172 97.0403 24.4272 96.907 24.4472C96.7803 24.4605 96.6837 24.4772 96.617 24.4972V28.5172H95.127V23.5372C95.3937 23.4439 95.707 23.3572 96.067 23.2772C96.4337 23.1905 96.8403 23.1472 97.287 23.1472C97.367 23.1472 97.4637 23.1539 97.577 23.1672C97.6903 23.1739 97.8037 23.1872 97.917 23.2072C98.0303 23.2205 98.1437 23.2405 98.257 23.2672C98.3703 23.2872 98.467 23.3139 98.547 23.3472L98.297 24.5772Z" fill="white"/>
<path fill-rule="evenodd" clip-rule="evenodd" d="M27.3946 30.0173C30.8741 29.5215 34.6601 28.503 38.7359 26.8941C63.1758 17.2468 46.5824 8.37127 41.4372 6.69906C41.3166 6.65987 41.1791 6.61496 41.0254 6.56479C34.6236 4.47431 0.275391 -6.74185 0.275391 6.69906C0.275391 13.6614 2.31251 19.6519 6.18729 23.8656C6.53866 23.4346 6.96334 23.0904 7.46134 22.8332C8.89173 22.118 10.3452 21.5813 11.8217 21.2233C13.2983 20.8652 14.7979 20.6867 16.3205 20.6876C17.8432 20.6876 19.3428 20.8666 20.8194 21.2247C22.2959 21.5827 23.7494 22.1189 25.1797 22.8332C25.8488 23.1792 26.3854 23.6812 26.7896 24.3392C27.1938 24.9972 27.3955 25.7179 27.3946 26.5014V30.0173ZM28.7788 17.9191V22.0718H31.5473V17.9191H35.7001V15.1506H31.5473V10.9978H28.7788V15.1506H24.626V17.9191H28.7788ZM12.41 17.6768C13.4944 18.7612 14.7979 19.3033 16.3205 19.3033C17.8432 19.3033 19.1467 18.7612 20.2311 17.6768C21.3154 16.5925 21.8575 15.289 21.8575 13.7663C21.8575 12.2436 21.3154 10.9401 20.2311 9.85581C19.1467 8.77148 17.8432 8.22932 16.3205 8.22932C14.7979 8.22932 13.4944 8.77148 12.41 9.85581C11.3257 10.9401 10.7835 12.2436 10.7835 13.7663C10.7835 15.289 11.3257 16.5925 12.41 17.6768Z" fill="white"/>
</svg>
