<svg width="52" height="31" viewBox="0 0 52 31" fill="none" xmlns="http://www.w3.org/2000/svg">
<path fill-rule="evenodd" clip-rule="evenodd" d="M27.2395 30.7065C30.7191 30.2108 34.5051 29.1922 38.5809 27.5833C63.0208 17.936 46.4274 9.06048 41.2822 7.38827C41.1616 7.34908 41.0241 7.30417 40.8704 7.254C34.4686 5.16352 0.120361 -6.05264 0.120361 7.38827C0.120361 14.3506 2.15748 20.3411 6.03226 24.5548C6.38363 24.1238 6.80831 23.7796 7.30631 23.5224C8.7367 22.8072 10.1902 22.2705 11.6667 21.9125C13.1432 21.5544 14.6428 21.3759 16.1655 21.3768C17.6882 21.3768 19.1878 21.5558 20.6643 21.9139C22.1409 22.2719 23.5943 22.8081 25.0247 23.5224C25.6938 23.8684 26.2304 24.3705 26.6346 25.0284C27.0388 25.6864 27.2404 26.4072 27.2395 27.1906V30.7065ZM28.6238 18.6083V22.761H31.3923V18.6083H35.545V15.8398H31.3923V11.687H28.6238V15.8398H24.471V18.6083H28.6238ZM12.255 18.366C13.3393 19.4504 14.6428 19.9925 16.1655 19.9925C17.6882 19.9925 18.9917 19.4504 20.076 18.366C21.1604 17.2817 21.7025 15.9782 21.7025 14.4555C21.7025 12.9329 21.1604 11.6294 20.076 10.545C18.9917 9.46069 17.6882 8.91853 16.1655 8.91853C14.6428 8.91853 13.3393 9.46069 12.255 10.545C11.1707 11.6294 10.6285 12.9329 10.6285 14.4555C10.6285 15.9782 11.1707 17.2817 12.255 18.366Z" fill="white"/>
</svg>
